<mxfile host="65bd71144e">
    <diagram id="C5RBs43oDa-KdzZeNtuy" name="Page-1">
        <mxGraphModel dx="756" dy="297" grid="1" gridSize="10" guides="1" tooltips="1" connect="1" arrows="1" fold="1" page="1" pageScale="1" pageWidth="827" pageHeight="1169" background="#ffffff" math="0" shadow="1">
            <root>
                <mxCell id="WIyWlLk6GJQsqaUBKTNV-0"/>
                <mxCell id="WIyWlLk6GJQsqaUBKTNV-1" parent="WIyWlLk6GJQsqaUBKTNV-0"/>
                <mxCell id="1ct1XAG1qSGuXSluaMcr-0" value="controller.py" style="rounded=1;whiteSpace=wrap;html=1;fillColor=#0050ef;fontColor=#ffffff;strokeColor=#00CCCC;strokeWidth=2;shadow=1;sketch=0;fontStyle=1;labelBackgroundColor=none;labelBorderColor=#00CCCC;fontSize=14;" parent="WIyWlLk6GJQsqaUBKTNV-1" vertex="1">
                    <mxGeometry x="330" y="150" width="120" height="50" as="geometry"/>
                </mxCell>
                <mxCell id="1ct1XAG1qSGuXSluaMcr-12" style="edgeStyle=orthogonalEdgeStyle;rounded=1;orthogonalLoop=1;jettySize=auto;html=1;entryX=0.5;entryY=1;entryDx=0;entryDy=0;fontColor=#FFFFFF;fillColor=#0050ef;strokeColor=#00CCCC;strokeWidth=2;shadow=1;sketch=0;fontStyle=1;labelBackgroundColor=none;labelBorderColor=#00CCCC;fontSize=14;" parent="WIyWlLk6GJQsqaUBKTNV-1" source="1ct1XAG1qSGuXSluaMcr-1" target="1ct1XAG1qSGuXSluaMcr-2" edge="1">
                    <mxGeometry relative="1" as="geometry"/>
                </mxCell>
                <mxCell id="1ct1XAG1qSGuXSluaMcr-1" value="search.py" style="rounded=1;whiteSpace=wrap;html=1;fillColor=#0050ef;fontColor=#ffffff;strokeColor=#00CCCC;strokeWidth=2;shadow=1;sketch=0;fontStyle=1;labelBackgroundColor=none;labelBorderColor=#00CCCC;fontSize=14;" parent="WIyWlLk6GJQsqaUBKTNV-1" vertex="1">
                    <mxGeometry x="160" y="330" width="120" height="50" as="geometry"/>
                </mxCell>
                <mxCell id="1ct1XAG1qSGuXSluaMcr-9" style="edgeStyle=orthogonalEdgeStyle;rounded=1;orthogonalLoop=1;jettySize=auto;html=1;entryX=0.25;entryY=1;entryDx=0;entryDy=0;fontColor=#FFFFFF;fillColor=#0050ef;strokeColor=#00CCCC;strokeWidth=2;shadow=1;sketch=0;fontStyle=1;labelBackgroundColor=none;labelBorderColor=#00CCCC;fontSize=14;" parent="WIyWlLk6GJQsqaUBKTNV-1" source="1ct1XAG1qSGuXSluaMcr-2" target="1ct1XAG1qSGuXSluaMcr-0" edge="1">
                    <mxGeometry relative="1" as="geometry"/>
                </mxCell>
                <mxCell id="1ct1XAG1qSGuXSluaMcr-2" value="&lt;font style=&quot;font-size: 14px;&quot;&gt;check.py&lt;/font&gt;" style="rounded=1;whiteSpace=wrap;html=1;fontColor=#ffffff;fillColor=#0050ef;strokeColor=#00CCCC;strokeWidth=2;shadow=1;sketch=0;fontStyle=1;labelBackgroundColor=none;labelBorderColor=#00CCCC;fontSize=14;" parent="WIyWlLk6GJQsqaUBKTNV-1" vertex="1">
                    <mxGeometry x="160" y="220" width="120" height="60" as="geometry"/>
                </mxCell>
                <mxCell id="1ct1XAG1qSGuXSluaMcr-10" style="edgeStyle=orthogonalEdgeStyle;rounded=1;orthogonalLoop=1;jettySize=auto;html=1;entryX=0.5;entryY=0;entryDx=0;entryDy=0;fontColor=#FFFFFF;fillColor=#0050ef;strokeColor=#00CCCC;strokeWidth=2;shadow=1;sketch=0;fontStyle=1;labelBackgroundColor=none;labelBorderColor=#00CCCC;fontSize=14;" parent="WIyWlLk6GJQsqaUBKTNV-1" source="1ct1XAG1qSGuXSluaMcr-4" target="1ct1XAG1qSGuXSluaMcr-2" edge="1">
                    <mxGeometry relative="1" as="geometry"/>
                </mxCell>
                <mxCell id="1ct1XAG1qSGuXSluaMcr-4" value="user_interface" style="rounded=1;whiteSpace=wrap;html=1;fontColor=#ffffff;fillColor=#0050ef;strokeColor=#00CCCC;strokeWidth=2;shadow=1;sketch=0;fontStyle=1;labelBackgroundColor=none;labelBorderColor=#00CCCC;fontSize=14;" parent="WIyWlLk6GJQsqaUBKTNV-1" vertex="1">
                    <mxGeometry x="160" y="120" width="120" height="50" as="geometry"/>
                </mxCell>
                <mxCell id="1ct1XAG1qSGuXSluaMcr-17" style="edgeStyle=orthogonalEdgeStyle;rounded=1;orthogonalLoop=1;jettySize=auto;html=1;entryX=1;entryY=0.75;entryDx=0;entryDy=0;fontColor=#FFFFFF;fillColor=#0050ef;strokeColor=#00CCCC;strokeWidth=2;shadow=1;sketch=0;fontStyle=1;labelBackgroundColor=none;labelBorderColor=#00CCCC;fontSize=14;" parent="WIyWlLk6GJQsqaUBKTNV-1" source="1ct1XAG1qSGuXSluaMcr-5" target="1ct1XAG1qSGuXSluaMcr-0" edge="1">
                    <mxGeometry relative="1" as="geometry"/>
                </mxCell>
                <mxCell id="1ct1XAG1qSGuXSluaMcr-18" style="edgeStyle=orthogonalEdgeStyle;rounded=1;orthogonalLoop=1;jettySize=auto;html=1;entryX=1;entryY=0.5;entryDx=0;entryDy=0;fontColor=#FFFFFF;fillColor=#0050ef;strokeColor=#00CCCC;strokeWidth=2;shadow=1;sketch=0;fontStyle=1;labelBackgroundColor=none;labelBorderColor=#00CCCC;fontSize=14;" parent="WIyWlLk6GJQsqaUBKTNV-1" source="1ct1XAG1qSGuXSluaMcr-5" target="1ct1XAG1qSGuXSluaMcr-7" edge="1">
                    <mxGeometry relative="1" as="geometry"/>
                </mxCell>
                <mxCell id="1ct1XAG1qSGuXSluaMcr-5" value="modul_import.py" style="rounded=1;whiteSpace=wrap;html=1;fontColor=#ffffff;fillColor=#0050ef;strokeColor=#00CCCC;shadow=1;sketch=0;fontStyle=1;labelBackgroundColor=none;labelBorderColor=#00CCCC;fontSize=14;" parent="WIyWlLk6GJQsqaUBKTNV-1" vertex="1">
                    <mxGeometry x="560" y="120" width="140" height="50" as="geometry"/>
                </mxCell>
                <mxCell id="1ct1XAG1qSGuXSluaMcr-15" style="edgeStyle=orthogonalEdgeStyle;rounded=1;orthogonalLoop=1;jettySize=auto;html=1;exitX=0;exitY=0.5;exitDx=0;exitDy=0;entryX=0.5;entryY=0;entryDx=0;entryDy=0;fontColor=#FFFFFF;fillColor=#0050ef;strokeColor=#00CCCC;strokeWidth=2;shadow=1;sketch=0;fontStyle=1;labelBackgroundColor=none;labelBorderColor=#00CCCC;fontSize=14;" parent="WIyWlLk6GJQsqaUBKTNV-1" source="1ct1XAG1qSGuXSluaMcr-6" target="1ct1XAG1qSGuXSluaMcr-0" edge="1">
                    <mxGeometry relative="1" as="geometry"/>
                </mxCell>
                <mxCell id="1ct1XAG1qSGuXSluaMcr-6" value="modul_export.py" style="rounded=1;whiteSpace=wrap;html=1;fontColor=#ffffff;fillColor=#0050ef;strokeColor=#00CCCC;shadow=1;sketch=0;fontStyle=1;labelBackgroundColor=none;labelBorderColor=#00CCCC;fontSize=14;" parent="WIyWlLk6GJQsqaUBKTNV-1" vertex="1">
                    <mxGeometry x="560" y="40" width="140" height="50" as="geometry"/>
                </mxCell>
                <mxCell id="1ct1XAG1qSGuXSluaMcr-11" style="edgeStyle=orthogonalEdgeStyle;rounded=1;orthogonalLoop=1;jettySize=auto;html=1;entryX=0.75;entryY=1;entryDx=0;entryDy=0;fontColor=#FFFFFF;fillColor=#0050ef;strokeColor=#00CCCC;strokeWidth=2;shadow=1;sketch=0;fontStyle=1;labelBackgroundColor=none;labelBorderColor=#00CCCC;fontSize=14;" parent="WIyWlLk6GJQsqaUBKTNV-1" source="1ct1XAG1qSGuXSluaMcr-7" target="1ct1XAG1qSGuXSluaMcr-0" edge="1">
                    <mxGeometry relative="1" as="geometry"/>
                </mxCell>
                <mxCell id="1ct1XAG1qSGuXSluaMcr-7" value="create.py&lt;br style=&quot;font-size: 14px;&quot;&gt;/ delete" style="rounded=1;whiteSpace=wrap;html=1;fontColor=#ffffff;fillColor=#0050ef;strokeColor=#00CCCC;strokeWidth=2;shadow=1;sketch=0;gradientColor=none;fontStyle=1;labelBackgroundColor=none;labelBorderColor=#00CCCC;fontSize=14;" parent="WIyWlLk6GJQsqaUBKTNV-1" vertex="1">
                    <mxGeometry x="470" y="220" width="120" height="60" as="geometry"/>
                </mxCell>
                <mxCell id="1" style="edgeStyle=none;rounded=1;sketch=0;html=1;exitX=0.5;exitY=0;exitDx=0;exitDy=0;shadow=1;fontColor=#FFFFFF;strokeColor=#00CCCC;strokeWidth=2;entryX=0.5;entryY=1;entryDx=0;entryDy=0;fontStyle=1;labelBackgroundColor=none;labelBorderColor=#00CCCC;fontSize=14;" edge="1" parent="WIyWlLk6GJQsqaUBKTNV-1" source="0" target="1ct1XAG1qSGuXSluaMcr-0">
                    <mxGeometry relative="1" as="geometry">
                        <mxPoint x="390" y="210" as="targetPoint"/>
                        <Array as="points">
                            <mxPoint x="515" y="300"/>
                            <mxPoint x="390" y="300"/>
                        </Array>
                    </mxGeometry>
                </mxCell>
                <mxCell id="0" value="start / main.py" style="ellipse;whiteSpace=wrap;html=1;rounded=1;fontColor=#FFFFFF;strokeColor=#00CCCC;strokeWidth=2;fillColor=#0050ef;gradientColor=none;shadow=1;sketch=0;gradientDirection=south;fontStyle=1;labelBackgroundColor=none;labelBorderColor=#00CCCC;fontSize=14;" vertex="1" parent="WIyWlLk6GJQsqaUBKTNV-1">
                    <mxGeometry x="390" y="330" width="250" height="80" as="geometry"/>
                </mxCell>
            </root>
        </mxGraphModel>
    </diagram>
</mxfile>